<svg xmlns="http://www.w3.org/2000/svg" viewBox="0 0 4000 3000"><defs><clipPath id="a"><path fill="none" d="M3243.3168,593.2105l-963.66-476.7237c-60.0672,0-401.5038,525.87-401.5038,585.9368v737.1888c0,60.0672,49.1459,109.2131,109.2131,109.2131h257.106l123.4108,123.4108a8.8987,8.8987,0,0,0,12.5595,0l123.4109-123.4108h739.4639c60.0673,0,109.2132-49.1459,109.2132-109.2131V702.4236C3352.53,642.3564,3303.3841,593.2105,3243.3168,593.2105Z"/></clipPath><clipPath id="b"><path fill="#fff" stroke="#010101" stroke-linecap="round" stroke-linejoin="round" stroke-width="6" d="M2294.0351,3195.1881c36.4134-57.3066,19.8752-387.8688,22.986-451H2036.3392C2157.9694,3128.0369,1948.8764,3308.88,2294.0351,3195.1881Z"/></clipPath><clipPath id="c"><path fill="#fff" stroke="#010101" stroke-linecap="round" stroke-linejoin="round" stroke-width="6" d="M2260.4988,1432.9729c46.7821-.1776,234.4967,107.9366,294.0841,115.6531l218.874-809.7128c-188.34-10.5156-388.6174,30.4877-406.1189,105.4063C2336.9237,934.1271,2261.0855,1431.24,2260.4988,1432.9729Z"/></clipPath><clipPath id="d"><path fill="#010101" stroke="#010101" stroke-linecap="round" stroke-linejoin="round" stroke-width="6" d="M2092.25,2352.6963,2390.3329,2208.81l-213.8982-406.383c888.8119,160.4473,580.9285,211.4177,815.9078-262.2649C1431.19,1340.7557,1345.8387,1194.3427,2092.25,2352.6963Z"/></clipPath><clipPath id="e"><path fill="#010101" stroke="#010101" stroke-linecap="round" stroke-linejoin="round" stroke-width="6" d="M2472.1293,1626.8247c-58.6982,76.4991-589.9416,551.9788-517.4309,571.4328,14.1,110.9813,99.2843,781.24,99.4681,782.6845,23.2381,41.0365,500.6958,112.817,484.081,5.548-3.3786-32.1823-4.4056-40.2859-71.0768-160.6671s22.4885-213.4369-51.572-277.4476,8.7091-159.2439-60.7058-315.4082c692.8133-394.4155,757.8758-305.95,818.637-832.4593H2670.8811"/></clipPath><clipPath id="f"><path fill="#fff" stroke="#010101" stroke-linecap="round" stroke-linejoin="round" stroke-width="6" d="M2608.4044,753.02c75.35-36.6769,339.8469-25.309,459.7442,22.9278,54.9,22.0874,160.9968,812.1767,160.9968,812.1767-301.4,45.1408-685.3984-51.96-697.9209-116.2617,0,0-14.5059-246.3846.5376-451.4293"/></clipPath><clipPath id="g"><path fill="#fff" stroke="#010101" stroke-linecap="round" stroke-linejoin="round" stroke-width="6" d="M2928.06,1408.7224c28.7127-67.1743-374.8316-287.7586-450.8743-352.8067-5.5854,10.2641-119.4136-199.5239-120.907-193.7519-17.3575-1.6465-41.477,8.4768-9.9286,96.3426-74.7092,12.8757-213.4658-66.934-213.0766-41.2877,14.4755,122.0746,236.3421,183.8949,277.2778,215.537,97.7982,76.301,429.47,381.491,431.5829,383.2963Z"/></clipPath><clipPath id="h"><path fill="#fff" stroke="#010101" stroke-linecap="round" stroke-linejoin="round" stroke-width="6" d="M2724.2871,551.5106c40.5016,53.6768,57.1114,161.604,82.7346,203.7821a17.4216,17.4216,0,0,1-10.8387,26.0989c-32.58,7.3547-59.4451-3.6592-137.2814,46.2783l-57.4087-246.1917Z"/></clipPath><clipPath id="i"><ellipse cx="2781.757" cy="480.48" fill="#010101" stroke="#010101" stroke-linecap="round" stroke-linejoin="round" stroke-width="6" rx="47.428" ry="47.026"/></clipPath><clipPath id="j"><ellipse cx="2689.167" cy="414.301" fill="#010101" stroke="#010101" stroke-linecap="round" stroke-linejoin="round" stroke-width="6" rx="47.428" ry="47.026"/></clipPath><clipPath id="k"><path fill="#fff" stroke="#010101" stroke-linecap="round" stroke-linejoin="round" stroke-width="6" d="M2608.553,462.84c5.7684,83.67-113.13,174.167,18.8006,223.1178S2782.261,451,2782.261,451Z"/></clipPath><clipPath id="l"><ellipse cx="2691.564" cy="439.252" fill="#010101" stroke="#010101" stroke-linecap="round" stroke-linejoin="round" stroke-width="6" rx="42.345" ry="46.235" transform="rotate(-5.967 2691.545 439.25)"/></clipPath><clipPath id="m"><path fill="none" d="M1867.488,2880.5132a44.3317,44.3317,0,0,1-11.16-1.4239l-291.0761-75.0935a700.9585,700.9585,0,0,1-318.3345,76.5174c-385.611,0-699.3257-313.7147-699.3257-699.3257A695.89,695.89,0,0,1,696.4933,1750.26c128.13-163.3028,335.32-411.9544,558.5094-411.9544,385.611,0,1133.7111,242.4543,1133.7111,628.0653,0,72.4928-453.3685,358.0729-474.612,425.4438a693.4573,693.4573,0,0,1-94.2155,190.2709l89.3921,238.0981a44.6425,44.6425,0,0,1-41.79,60.3294Z"/></clipPath><clipPath id="n"><path fill="#fff" stroke="#010101" stroke-linecap="round" stroke-linejoin="round" stroke-width="6" d="M1288.0826,2087.7245c111.7083,95.4852,274.9418,345.0572,339.8425,302.8971,216.9888-111.1729,362.803-228.2387,404.0544-455.8747,14.1479-30.4748,29.1024-38.7354,49.0888-34.0175,203.4651,171.121-289.5239,555.1383-452.6693,696.6878-66.5948,68.0186-288.7215-145.8388-386.4774-240.8995C1162.4667,2328.4315,1269.1309,2172.57,1288.0826,2087.7245Z"/></clipPath><clipPath id="o"><path fill="#010101" stroke="#010101" stroke-linecap="round" stroke-linejoin="round" stroke-width="6" d="M1284.048,2502.269s39.969,24.9718,185.1714-256.3943c0,0-168.4515-279.3308-200.4359-266.537S1074.7807,2335.3041,1284.048,2502.269Z"/></clipPath><clipPath id="p"><path fill="#fff" stroke="#010101" stroke-linecap="round" stroke-linejoin="round" stroke-width="6" d="M1311.5308,1616.165c-166.9145,430.4621,118.8536,249.1661-216.2969,484.3394-75.7462-301.0819-10.3178-246.8673,32.6208-486.3723C1102.1983,1431.7779,1269.9612,1598.09,1311.5308,1616.165Z"/></clipPath><clipPath id="q"><path fill="#010101" stroke="#010101" stroke-linecap="round" stroke-linejoin="round" stroke-width="6" d="M1188.1742,2912.1425s-339.4911-93.5717-471.7637-178.7092c0,0-474.3364-48.4617-106.0871,1239.6044,0,0-652.5644,180.7824-963.3621,711.4326,0,0,46.78,376.59,457.5242,512.9812,204.4515,67.89,826.1028-968.2924,911.7445-1122.6191,54.373-97.98,100.6614-501.4533,132.5159-807.6224"/></clipPath><clipPath id="r"><path fill="#010101" stroke="#010101" stroke-linecap="round" stroke-linejoin="round" stroke-width="6" d="M441.3086,2752.081s592.2168,285.8314,885.0469,142.0119c0,0-169.39-377.3148-3.8869-519.0636,169.1982-144.9139-15.6332-420.7918-52.9174-455.788,0,0-81.377,38.1914-187.601-107.24C985.8473,1680.4266,434.0776,2578.7267,441.3086,2752.081Z"/></clipPath><clipPath id="s"><path fill="#fff" stroke="#010101" stroke-linecap="round" stroke-linejoin="round" stroke-width="6" d="M812.6909,3312.9013c-5.1351,60.4107-185.95,339.6732-211.9289,228.8939s113.6244-238.3014,113.6244-238.3014S599.43,2482.2163,659.5182,2380.7815s194.1437-657.6215,422.432-568.78-191.6809,688.1739-191.6809,688.1739Z"/></clipPath><clipPath id="t"><path fill="#010101" stroke="#010101" stroke-linecap="round" stroke-linejoin="round" stroke-width="6" d="M693.4326,2153.4322c-1.5624,7.8577,402.0347,165.091,410.6206,93.9814C1434.91,1434.3139,693.4281,1799.3211,693.4326,2153.4322Z"/></clipPath><clipPath id="u"><path fill="#010101" stroke="#010101" stroke-linecap="round" stroke-linejoin="round" stroke-width="6" d="M1160.7244,1720.8586l-9.7564,124.9874a90.7322,90.7322,0,0,1-43.4661,22.1007l-218.6,43.9332-1.4832-35.2639-40.71,43.7437-62.2022,12.501c-139.7126-149.8919,62.6294-277.2465,154.7613-333.1222s43.6249-157.4306,113.3742-168.6039,60.1933,76.4365,60.1933,76.4365l47.89,213.2875"/></clipPath><clipPath id="v"><path fill="#010101" stroke="#010101" stroke-linecap="round" stroke-linejoin="round" stroke-width="6" d="M1241.4375,1620.772c115.79-105.462,180.5736-216.8621-8.8061-198.7266-104.4471-54.9732-179.99,9.0892-179.99,9.0892s-73.6289,185.12-68.8459,184.1322c41.3492-8.5385,73.6281,82.404,107.8327,90.4071"/></clipPath><clipPath id="w"><path fill="#fff" stroke="#010101" stroke-linecap="round" stroke-linejoin="round" stroke-width="6" d="M1207.495,1427.0972c105.1222,8.7607,82.4566,102.1628,111.7,136.1358s50.444,184.3228-49.6439,182.0222-172.4371-61.8542-172.4371-61.8542l16.8355-164.0868Z"/></clipPath><clipPath id="x"><path fill="#010101" stroke="#010101" stroke-linecap="round" stroke-linejoin="round" stroke-width="6" d="M1101.2037,1703.75c131.6553-38.9126,66.21-122.8946,66.21-122.8946s120.7753-128.5668,76.4231-188.1457-197.6863,74.2862-194.5181,133.4248S1030.4561,1689.3176,1101.2037,1703.75Z"/></clipPath></defs><path fill="#fff" stroke="#010101" stroke-linecap="round" stroke-linejoin="round" stroke-width="6" d="M3375.8007,2502.1772H2378.1282a76.6074,76.6074,0,0,1-76.6074-76.6074V2193.5091a76.6075,76.6075,0,0,1,76.6074-76.6075h997.6725a76.6075,76.6075,0,0,1,76.6074,76.6075V2425.57A76.6074,76.6074,0,0,1,3375.8007,2502.1772Z"/><path fill="#fff" stroke="#010101" stroke-linecap="round" stroke-linejoin="round" stroke-width="6" d="M2667.0386,2116.9016h-450.026a13.0761,13.0761,0,0,0-9.2462,22.3223l142.5312,142.5312"/><rect width="240.205" height="52.629" x="2435.476" y="2194.929" fill="#fff" stroke="#010101" stroke-linecap="round" stroke-linejoin="round" stroke-width="6"/><rect width="574.207" height="52.629" x="2759.038" y="2194.929" fill="#fff" stroke="#010101" stroke-linecap="round" stroke-linejoin="round" stroke-width="6"/><rect width="273.548" height="52.629" x="2435.476" y="2283.227" fill="#fff" stroke="#010101" stroke-linecap="round" stroke-linejoin="round" stroke-width="6"/><rect width="170.409" height="52.629" x="2749.774" y="2283.227" fill="#fff" stroke="#010101" stroke-linecap="round" stroke-linejoin="round" stroke-width="6"/><rect width="625.481" height="52.629" x="2435.476" y="2378.309" fill="#fff" stroke="#010101" stroke-linecap="round" stroke-linejoin="round" stroke-width="6"/><circle cx="3264.71" cy="2378.691" r="54.334" fill="#fff" stroke="#010101" stroke-linecap="round" stroke-linejoin="round" stroke-width="6"/><rect width="917.295" height="315.835" x="785.364" y="624.938" fill="#010101" stroke="#010101" stroke-linecap="round" stroke-linejoin="round" stroke-width="6" rx="45.709" transform="rotate(180 1244.012 782.855)"/><path fill="#010101" stroke="#010101" stroke-linecap="round" stroke-linejoin="round" stroke-width="6" d="M1684.8077,782.8553H1745.19a9.6853,9.6853,0,0,0,6.8486-16.5338l-89.2023-89.2023"/><rect width="188.75" height="29.459" x="896.333" y="683.222" fill="#fff" stroke="#010101" stroke-linecap="round" stroke-linejoin="round" stroke-width="6" rx="14.73"/><rect width="580.605" height="29.459" x="896.333" y="822.662" fill="#fff" stroke="#010101" stroke-linecap="round" stroke-linejoin="round" stroke-width="6" rx="14.73"/><rect width="428.785" height="29.459" x="1123.533" y="683.222" fill="#fff" stroke="#010101" stroke-linecap="round" stroke-linejoin="round" stroke-width="6" rx="14.73"/><rect width="655.985" height="29.459" x="896.333" y="743.614" fill="#fff" stroke="#010101" stroke-linecap="round" stroke-linejoin="round" stroke-width="6" rx="14.73"/><path fill="none" stroke="#fff" stroke-linecap="round" stroke-linejoin="round" stroke-width="6" d="M1593.9672,831.8437l-7.8236,7.8235"/><path fill="#fff" stroke="#010101" stroke-linecap="round" stroke-linejoin="round" stroke-width="6" d="M1867.488,2880.5132a44.3317,44.3317,0,0,1-11.16-1.4239l-291.0761-75.0935a700.9585,700.9585,0,0,1-318.3345,76.5174c-385.611,0-699.3257-313.7147-699.3257-699.3257s313.7147-699.3257,699.3257-699.3257,699.3257,313.7147,699.3257,699.3257c0,144.9856-43.5918,283.0549-126.357,400.8982l89.3921,238.0981a44.6425,44.6425,0,0,1-41.79,60.3294Z"/><path fill="#fff" stroke="#010101" stroke-linecap="round" stroke-linejoin="round" stroke-width="6" d="M3243.3168,593.2105H1987.3657c-60.0672,0-109.2131,49.1459-109.2131,109.2131v737.1888c0,60.0672,49.1459,109.2131,109.2131,109.2131h257.106l123.4108,123.4108a8.8987,8.8987,0,0,0,12.5595,0l123.4109-123.4108h739.4639c60.0673,0,109.2132-49.1459,109.2132-109.2131V702.4236C3352.53,642.3564,3303.3841,593.2105,3243.3168,593.2105Z"/><g clip-path="url(#a)"><path fill="#fff" d="M2294.0351,3195.1881c36.4134-57.3066,19.8752-387.8688,22.986-451H2036.3392C2157.9694,3128.0369,1948.8764,3308.88,2294.0351,3195.1881Z"/><g clip-path="url(#b)"><path fill="#fff" d="M1994.8189,2965.0421c500.0234,193.146,308.287,54.1423,493.5444,212.3275-128.369-177.11-279.1082-195.7313-388.2112-222.531"/></g><path fill="none" stroke="#010101" stroke-linecap="round" stroke-linejoin="round" stroke-width="6" d="M2294.0351,3195.1881c36.4134-57.3066,19.8752-387.8688,22.986-451H2036.3392C2157.9694,3128.0369,1948.8764,3308.88,2294.0351,3195.1881Z"/><path fill="#fff" d="M2260.4988,1432.9729c46.7821-.1776,234.4967,107.9366,294.0841,115.6531l218.874-809.7128c-188.34-10.5156-388.6174,30.4877-406.1189,105.4063C2336.9237,934.1271,2261.0855,1431.24,2260.4988,1432.9729Z"/><g clip-path="url(#c)"><path fill="#fff" d="M2530.4762,1064.1869c-21.7709,506.1835-302.5614,374.8567-302.5614,374.8567l65.2888,181.8782,308.1984-72.2958,10.9062-294.22"/></g><path fill="none" stroke="#010101" stroke-linecap="round" stroke-linejoin="round" stroke-width="6" d="M2260.4988,1432.9729c46.7821-.1776,234.4967,107.9366,294.0841,115.6531l218.874-809.7128c-188.34-10.5156-388.6174,30.4877-406.1189,105.4063C2336.9237,934.1271,2261.0855,1431.24,2260.4988,1432.9729Z"/><path fill="#010101" d="M2092.25,2352.6963,2390.3329,2208.81l-213.8982-406.383c888.8119,160.4473,580.9285,211.4177,815.9078-262.2649C1431.19,1340.7557,1345.8387,1194.3427,2092.25,2352.6963Z"/><g clip-path="url(#d)"><path fill="none" stroke="#fff" stroke-linecap="round" stroke-linejoin="round" stroke-width="6" d="M2227.9148,2168.7217c-337.01-573.7442-600.43-692.456,325.5586-454.0582"/><path fill="#010101" d="M2193.8775,1813.906c234.4458-265.28,262.3785-162.6414,262.3785-162.6414-22.2643,62.0084-28.6787,192.2547-148.5268,169.6341"/><path fill="#010101" d="M2222.6741,1838.755s64.8838-75.2513,12.9767,11.4789-418.5009,265.2925-473.6522,252.538S1979.36,2240.52,1979.36,2240.52l210.6955-181.1131"/></g><path fill="none" stroke="#010101" stroke-linecap="round" stroke-linejoin="round" stroke-width="6" d="M2092.25,2352.6963,2390.3329,2208.81l-213.8982-406.383c888.8119,160.4473,580.9285,211.4177,815.9078-262.2649C1431.19,1340.7557,1345.8387,1194.3427,2092.25,2352.6963Z"/><path fill="#010101" d="M2472.1293,1626.8247c-58.6982,76.4991-589.9416,551.9788-517.4309,571.4328,14.1,110.9813,99.2843,781.24,99.4681,782.6845,23.2381,41.0365,500.6958,112.817,484.081,5.548-3.3786-32.1823-4.4056-40.2859-71.0768-160.6671s22.4885-213.4369-51.572-277.4476,8.7091-159.2439-60.7058-315.4082c692.8133-394.4155,757.8758-305.95,818.637-832.4593H2670.8811"/><g clip-path="url(#e)"><path fill="#010101" d="M2557.4964,1470.3716c296.1342,239.81,671.649,250.5322,454.274,543.189-120.4413,162.1528,497.1583-528.4975,508.4252-524.9152,148.4592,47.2033-880.8726-52.1294-880.8726-52.1294"/><path fill="none" stroke="#fff" stroke-linecap="round" stroke-linejoin="round" stroke-width="6" d="M1861.7259,2821.7492c465.52,194.3107,740.2938,48.2248,740.2938,48.2248"/><path fill="none" stroke="#fff" stroke-linecap="round" stroke-linejoin="round" stroke-width="6" d="M2777.67,1729.9688c-842.0724,626.684-536.6052,346.137-526.4041,1181.9087"/></g><path fill="none" stroke="#010101" stroke-linecap="round" stroke-linejoin="round" stroke-width="6" d="M2472.1293,1626.8247c-58.6982,76.4991-589.9416,551.9788-517.4309,571.4328,14.1,110.9813,99.2843,781.24,99.4681,782.6845,23.2381,41.0365,500.6958,112.817,484.081,5.548-3.3786-32.1823-4.4056-40.2859-71.0768-160.6671s22.4885-213.4369-51.572-277.4476,8.7091-159.2439-60.7058-315.4082c692.8133-394.4155,757.8758-305.95,818.637-832.4593H2670.8811"/><path fill="#fff" stroke="#010101" stroke-linecap="round" stroke-linejoin="round" stroke-width="6" d="M2389.1647,1074.7411l-68.8783-330.78c-1.6959-8.1381-9.3334-14.7393-17.062-14.7393h-161.1a10.7846,10.7846,0,0,0-9.3721,4.9752c-.0058.0038-.06-.0039-.064.0038-.3066.52-7.2494,10.11-7.2494,10.11l6.0657,1.11,68.5757,329.3209c1.6959,8.138,9.3353,14.7393,17.062,14.7393h161.1C2385.9689,1089.48,2390.8607,1082.8791,2389.1647,1074.7411Z"/><path fill="#fff" stroke="#010101" stroke-linecap="round" stroke-linejoin="round" stroke-width="6" d="M2371.6494,1098.3746H2210.55c-7.7278,0-15.3665-6.5989-17.0616-14.7391l-68.8792-330.7772c-1.6951-8.14,3.1954-14.7391,10.9232-14.7391h161.0992c7.7278,0,15.3666,6.5989,17.0616,14.7391l68.8792,330.7772C2384.2677,1091.7757,2379.3772,1098.3746,2371.6494,1098.3746Z"/><path fill="#010101" stroke="#010101" stroke-linecap="round" stroke-linejoin="round" stroke-width="6" d="M2215.9571,864.6933h-43.0948a4.991,4.991,0,0,1-4.5641-3.9428l-18.4255-88.4845a3.0376,3.0376,0,0,1,2.922-3.9428H2195.89a4.991,4.991,0,0,1,4.5641,3.9428l18.4255,88.4845A3.0376,3.0376,0,0,1,2215.9571,864.6933Z"/><path fill="#fff" d="M2608.4044,753.02c75.35-36.6769,339.8469-25.309,459.7442,22.9278,54.9,22.0874,160.9968,812.1767,160.9968,812.1767-301.4,45.1408-685.3984-51.96-697.9209-116.2617,0,0-14.5059-246.3846.5376-451.4293"/><g clip-path="url(#f)"><path fill="#fff" d="M2933.2947,1081.5072c-5.2351,327.2152-61.6379,285.5072-66.015,234.3708l-156.6145,84.63s364.8609,331.2831-156.0823,148.1182c-250.787-88.1773-52.3039,109.5647-54.1375,111.8321s565.086,103.3286,565.086,103.3286l279.8717-73.3538,35.881-78.6884,28.7048-307.83Z"/><line x1="2601.402" x2="2627.84" y1="1548.626" y2="835.405" fill="#fff" stroke="#010101" stroke-linecap="round" stroke-linejoin="round" stroke-width="6"/></g><path fill="none" stroke="#010101" stroke-linecap="round" stroke-linejoin="round" stroke-width="6" d="M2608.4044,753.02c75.35-36.6769,339.8469-25.309,459.7442,22.9278,54.9,22.0874,160.9968,812.1767,160.9968,812.1767-301.4,45.1408-685.3984-51.96-697.9209-116.2617,0,0-14.5059-246.3846.5376-451.4293"/><path fill="#fff" d="M2928.06,1408.7224c28.7127-67.1743-374.8316-287.7586-450.8743-352.8067-5.5854,10.2641-119.4136-199.5239-120.907-193.7519-17.3575-1.6465-41.477,8.4768-9.9286,96.3426-74.7092,12.8757-213.4658-66.934-213.0766-41.2877,14.4755,122.0746,236.3421,183.8949,277.2778,215.537,97.7982,76.301,429.47,381.491,431.5829,383.2963Z"/><g clip-path="url(#g)"><path fill="#fff" d="M2729.53,1165.5239c93.8154,114.285-33.4165,245.1622,19.4564,325.103,251.2121,80.6551,159.1876-82.6277,161.6827-140.7026"/></g><path fill="none" stroke="#010101" stroke-linecap="round" stroke-linejoin="round" stroke-width="6" d="M2928.06,1408.7224c28.7127-67.1743-374.8316-287.7586-450.8743-352.8067-5.5854,10.2641-119.4136-199.5239-120.907-193.7519-17.3575-1.6465-41.477,8.4768-9.9286,96.3426-74.7092,12.8757-213.4658-66.934-213.0766-41.2877,14.4755,122.0746,236.3421,183.8949,277.2778,215.537,97.7982,76.301,429.47,381.491,431.5829,383.2963Z"/><path fill="#fff" stroke="#010101" stroke-linecap="round" stroke-linejoin="round" stroke-width="6" d="M2198.59,1387.9082c-389.197-41.48-143.7207,369.707-165.731,207.6586,3.1435,25.7263,82.6627,123.1869,55.0381,8.4639,55.8341,42.6926,26.8869-51.6993,14.876-79.6492,53.8472,82.2475,22.0128-12.3911,53.0792-90.5988-10.4736-17.4323,110.2347,14.98,120.5358,11.6729Z"/><path fill="#fff" d="M2724.2871,551.5106c40.5016,53.6768,57.1114,161.604,82.7346,203.7821a17.4216,17.4216,0,0,1-10.8387,26.0989c-32.58,7.3547-59.4451-3.6592-137.2814,46.2783l-57.4087-246.1917Z"/><g clip-path="url(#h)"><path fill="#fff" d="M2715.7543,647.5774c71.3326-48.645-84.5938,196.3883-59.7116,210.3184-76.4062-85.0455-122.6782-181.136-103.986-257.5439l175.7266,16.6513"/></g><path fill="none" stroke="#010101" stroke-linecap="round" stroke-linejoin="round" stroke-width="6" d="M2724.2871,551.5106c40.5016,53.6768,57.1114,161.604,82.7346,203.7821a17.4216,17.4216,0,0,1-10.8387,26.0989c-32.58,7.3547-59.4451-3.6592-137.2814,46.2783l-57.4087-246.1917Z"/><path fill="#fff" stroke="#010101" stroke-linecap="round" stroke-linejoin="round" stroke-width="6" d="M2933.2947,1078.5018l91.3922,316.7676-157.405-81.2469s-49.8993,127.2583-94.66,141.7879c272.2873,350.8887,557.7557,246.676,525.95,34.559-76.3147-189.1328-118.7817-768.9189-297.4564-733.5246"/><path fill="#fff" stroke="#010101" stroke-linecap="round" stroke-linejoin="round" stroke-width="6" d="M2683.5882,888.0668s-2.3612-72.3979-33.1247-65.543c49.3685-22.7467,118.7064-156.1733,237.4128-83.6106Z"/><path fill="#fff" stroke="#010101" stroke-linecap="round" stroke-linejoin="round" stroke-width="6" d="M2604.0135,866.0678s9.62-40.9193,53.4728-40.8667l-24.9715-110.6884C2580.7791,716.5172,2609.3012,849.4682,2604.0135,866.0678Z"/><path fill="#fff" stroke="#010101" stroke-linecap="round" stroke-linejoin="round" stroke-width="6" d="M2834.9839,1281.8627c-126.4337,166.9465-111.72,154.0322-33.5233,242.32C2934.1752,1325.811,2958.4933,1345.5643,2834.9839,1281.8627Z"/><path fill="#fff" stroke="#010101" stroke-linecap="round" stroke-linejoin="round" stroke-width="6" d="M2685.751,1015.72c-35.4151,53.7585,164.3014,28.002,183.8376,39.1136C2905.923,995.9794,2708.3678,1027.4438,2685.751,1015.72Z"/><path fill="none" stroke="#fff" stroke-linecap="round" stroke-linejoin="round" stroke-width="6" d="M2748.4721,1644.9392c-67.0467,108.8379,128.5675,187.0652,128.5675,187.0652"/><path fill="none" stroke="#fff" stroke-linecap="round" stroke-linejoin="round" stroke-width="6" d="M3033.041,1398.2746l58.3648,73.9908"/><path fill="none" stroke="#fff" stroke-linecap="round" stroke-linejoin="round" stroke-width="6" d="M2137.4037,1737.6592a278.97,278.97,0,0,0,39.031,40.76"/><path fill="none" stroke="#fff" stroke-linecap="round" stroke-linejoin="round" stroke-width="6" d="M2267.0139,2199.4552c14.1457,16.8149,39.4753,27.44,65.115,27.3132"/><path fill="none" stroke="#010101" stroke-linecap="round" stroke-linejoin="round" stroke-width="6" d="M2344.872,965.0755l8.6512,6.8024"/><path fill="none" stroke="#010101" stroke-linecap="round" stroke-linejoin="round" stroke-width="6" d="M2101.7781,1524.7824l-5.5127-13.8449"/><path fill="none" stroke="#fff" stroke-linecap="round" stroke-linejoin="round" stroke-width="6" d="M2629.8046,1437.001a86.0235,86.0235,0,0,0,29.221,16.5559"/><path fill="none" stroke="#fff" stroke-linecap="round" stroke-linejoin="round" stroke-width="6" d="M3037.5683,913.7982a107.2491,107.2491,0,0,1,18.59,46.2"/><path fill="none" stroke="#fff" stroke-linecap="round" stroke-linejoin="round" stroke-width="6" d="M1824.23,1495.02c-15.89,24.0964-20.5169,52.6626-12.8165,79.1215"/><path fill="none" stroke="#fff" stroke-linecap="round" stroke-linejoin="round" stroke-width="6" d="M2076.4869,2761.0706c9.1328,6.6148,22.7869,9.1114,34.6945,6.3439"/><ellipse cx="2756.739" cy="508.106" fill="#010101" stroke="#010101" stroke-linecap="round" stroke-linejoin="round" stroke-width="6" rx="66.972" ry="66.405"/><ellipse cx="2781.757" cy="480.48" fill="#010101" rx="47.428" ry="47.026"/><g clip-path="url(#i)"><path fill="#010101" d="M2762.8573,448.8355c42.7416-11.33,65.4986,4.4987,65.4986,4.4987l-29.5754-35.2166-24.8515,6.7375"/></g><ellipse cx="2781.757" cy="480.48" fill="none" stroke="#010101" stroke-linecap="round" stroke-linejoin="round" stroke-width="6" rx="47.428" ry="47.026"/><ellipse cx="2689.167" cy="414.301" fill="#010101" rx="47.428" ry="47.026"/><g clip-path="url(#j)"><path fill="#010101" d="M2737.2846,373.023c-54.2726,10.386-27.2238,33.6876-11.1943,29.7445s7.37-31.0416,7.37-31.0416"/></g><ellipse cx="2689.167" cy="414.301" fill="none" stroke="#010101" stroke-linecap="round" stroke-linejoin="round" stroke-width="6" rx="47.428" ry="47.026"/><path fill="#fff" d="M2608.553,462.84c5.7684,83.67-113.13,174.167,18.8006,223.1178S2782.261,451,2782.261,451Z"/><g clip-path="url(#k)"><path fill="#fff" d="M2550.45,565.0255c-2.6,9.419,6.0551,20.7234,19.7261,25.4505,14.146,4.8912,28.36.9626,31.3171-8.9978,2.9791-10.0351-6.735-21.8556-21.2482-26.1931C2566.225,551.095,2553.0684,555.54,2550.45,565.0255Z" opacity=".3"/><path fill="#fff" d="M2598.8766,476.6163c40.355,13.8692,59.4579-3.1085,59.4579-3.1085s25.9383,31.74,57.815,16.0181c0,0-5.2577,56.9193,47.7956,59.1925s-10.2073-90.8416-10.2073-90.8416L2650.3146,428.762"/></g><path fill="none" stroke="#010101" stroke-linecap="round" stroke-linejoin="round" stroke-width="6" d="M2608.553,462.84c5.7684,83.67-113.13,174.167,18.8006,223.1178S2782.261,451,2782.261,451Z"/><path fill="#fff" stroke="#010101" stroke-linecap="round" stroke-linejoin="round" stroke-width="6" d="M2746.92,556.66c72.4783-17.35,58.5585,88.06-30.238,76.9694"/><ellipse cx="2737.635" cy="454.118" fill="#010101" stroke="#010101" stroke-linecap="round" stroke-linejoin="round" stroke-width="6" rx="31.606" ry="31.338"/><ellipse cx="2691.564" cy="439.252" fill="#010101" rx="42.345" ry="46.235" transform="rotate(-5.967 2691.545 439.25)"/><g clip-path="url(#l)"><path fill="#010101" d="M2665.1325,455.2756c10.23-7.0061-7.8638,15.266,11.5281,26.9164s-28.5578-3.28-28.5578-3.28l-2.856-28.278"/></g><ellipse cx="2691.564" cy="439.252" fill="none" stroke="#010101" stroke-linecap="round" stroke-linejoin="round" stroke-width="6" rx="42.345" ry="46.235" transform="rotate(-5.967 2691.545 439.25)"/><ellipse cx="2631.467" cy="430.436" fill="#010101" stroke="#010101" stroke-linecap="round" stroke-linejoin="round" stroke-width="6" rx="47.428" ry="47.026"/><ellipse cx="2743.529" cy="426.99" fill="#010101" stroke="#010101" stroke-linecap="round" stroke-linejoin="round" stroke-width="6" rx="47.428" ry="47.026"/><ellipse cx="2774.913" cy="498.019" fill="#010101" stroke="#010101" stroke-linecap="round" stroke-linejoin="round" stroke-width="6" rx="52.823" ry="50.587" transform="rotate(-4.377 2774.897 498.016)"/><path fill="#010101" d="M2660.5833,545.6264c-4.1424,16.3459,9.9167,22.3432,15.7566,4.351C2680.5664,533.2549,2666.28,528.02,2660.5833,545.6264Z"/><path fill="#010101" d="M2600.2464,528.0817c-3.791,14.8079,7.7056,19.8445,12.9265,3.55C2617.0345,516.5156,2605.3522,512.1044,2600.2464,528.0817Z"/><path fill="#010101" d="M2617.04,475.0457c30.0048,4.8335,32.0817,22.5935,12.2916,20.5079C2610.6971,493.59,2598.9137,472.1258,2617.04,475.0457Z"/><path fill="#010101" d="M2681.1543,503.2151c38.3573.8463,44.2912,20.1083,19.0228,20.7054C2676.5108,524.48,2658.15,502.7076,2681.1543,503.2151Z"/><path fill="#fff" d="M2618.4919,572.4706c7.4222-7.3385,11.6349-28.141,16.9438-23.9447,6.7067.3952-4.0246,18.9131-2.63,30.2056,1.4161,11.4631-6.9457,13.9765-12.1074,11.5717-.012-.0056-.0139-.0264-.0256-.0324s-.026.0084-.038.0028C2615.563,587.9105,2611.1776,579.7023,2618.4919,572.4706Z"/><path fill="#fff" d="M2642.3324,596.3493c-.5381,9.7509,10.3276,18.9907,24.6967,20.752,14.8682,1.8225,27.9268-4.9906,28.6982-15.3453.7771-10.4325-11.2331-19.9552-26.3426-21.16C2654.7891,579.4328,2642.8743,586.53,2642.3324,596.3493Z" opacity=".3"/><path fill="none" stroke="#010101" stroke-linecap="round" stroke-linejoin="round" stroke-width="6" d="M2626.62,607.0786c-9.2229,11.9073-19.9721,1.1326-19.9721,1.1326"/><path fill="none" stroke="#010101" stroke-linecap="round" stroke-linejoin="round" stroke-width="6" d="M2754.0569,590.3642c10.2956-2.3954,18.9241,7.168-1.3216,15.9631"/><path fill="none" stroke="#fff" stroke-linecap="round" stroke-linejoin="round" stroke-width="6" d="M2521.807,1746.79a97.3291,97.3291,0,0,0-30.3888,34.1744"/><path fill="none" stroke="#fff" stroke-linecap="round" stroke-linejoin="round" stroke-width="6" d="M2364.2126,1213.2358a109.2371,109.2371,0,0,0,25.4038,43.4652"/></g><g clip-path="url(#m)"><path fill="#fff" d="M1288.0826,2087.7245c111.7083,95.4852,274.9418,345.0572,339.8425,302.8971,216.9888-111.1729,362.803-228.2387,404.0544-455.8747,14.1479-30.4748,29.1024-38.7354,49.0888-34.0175,203.4651,171.121-289.5239,555.1383-452.6693,696.6878-66.5948,68.0186-288.7215-145.8388-386.4774-240.8995C1162.4667,2328.4315,1269.1309,2172.57,1288.0826,2087.7245Z"/><g clip-path="url(#n)"><path fill="#fff" d="M1366.83,2528.5688c-35.8044-120.4955,123.3455-233.9092,80.3516-272.2246-265.57.2683-173.65,115.0473-184.8525,216.5807"/></g><path fill="none" stroke="#010101" stroke-linecap="round" stroke-linejoin="round" stroke-width="6" d="M1288.0826,2087.7245c111.7083,95.4852,274.9418,345.0572,339.8425,302.8971,216.9888-111.1729,362.803-228.2387,404.0544-455.8747,14.1479-30.4748,29.1024-38.7354,49.0888-34.0175,203.4651,171.121-289.5239,555.1383-452.6693,696.6878-66.5948,68.0186-288.7215-145.8388-386.4774-240.8995C1162.4667,2328.4315,1269.1309,2172.57,1288.0826,2087.7245Z"/><path fill="#010101" d="M1284.048,2502.269s39.969,24.9718,185.1714-256.3943c0,0-168.4515-279.3308-200.4359-266.537S1074.7807,2335.3041,1284.048,2502.269Z"/><g clip-path="url(#o)"><path fill="#fff" stroke="#010101" stroke-linecap="round" stroke-linejoin="round" stroke-width="6" d="M1453.8315,2127.8428c15.3879,118.0319-275.95,320.6-275.95,320.6l76.9839,100.967,326.9995-195.7981"/></g><path fill="none" stroke="#010101" stroke-linecap="round" stroke-linejoin="round" stroke-width="6" d="M1284.048,2502.269s39.969,24.9718,185.1714-256.3943c0,0-168.4515-279.3308-200.4359-266.537S1074.7807,2335.3041,1284.048,2502.269Z"/><path fill="#010101" stroke="#010101" stroke-linecap="round" stroke-linejoin="round" stroke-width="6" d="M570.428,1537.4294c.1321-.07.0645-.0143.2959-.2385C570.6259,1537.2722,570.526,1537.35,570.428,1537.4294Z"/><path fill="#fff" d="M1311.5308,1616.165c-166.9145,430.4621,118.8536,249.1661-216.2969,484.3394-75.7462-301.0819-10.3178-246.8673,32.6208-486.3723C1102.1983,1431.7779,1269.9612,1598.09,1311.5308,1616.165Z"/><g clip-path="url(#p)"><path fill="#fff" d="M1504.2679,1691.0318c-43.5511,211.2374-318.569,330.6826-285.4517,18.7277C1208.17,1490.8155,1494.5722,1538.6541,1504.2679,1691.0318Z"/></g><path fill="none" stroke="#010101" stroke-linecap="round" stroke-linejoin="round" stroke-width="6" d="M1311.5308,1616.165c-166.9145,430.4621,118.8536,249.1661-216.2969,484.3394-75.7462-301.0819-10.3178-246.8673,32.6208-486.3723C1102.1983,1431.7779,1269.9612,1598.09,1311.5308,1616.165Z"/><path fill="#010101" d="M1202.7351,5316.6121c45.9561,65.4749,652.43-54.5243,652.43-54.5243s-215.6133-1142.1023-268.2637-1342.2706c-20.4162-77.6194-398.7271-1007.6747-398.7271-1007.6747l-566.4849,187.568s353.9671,910.5942,509.0355,1072.2873C1130.7248,4171.9978,1156.779,5251.1372,1202.7351,5316.6121Z"/><path fill="none" stroke="#010101" stroke-linecap="round" stroke-linejoin="round" stroke-width="6" d="M1202.7351,5316.6121c45.9561,65.4749,652.43-54.5243,652.43-54.5243s-215.6133-1142.1023-268.2637-1342.2706c-20.4162-77.6194-398.7271-1007.6747-398.7271-1007.6747l-566.4849,187.568s353.9671,910.5942,509.0355,1072.2873C1130.7248,4171.9978,1156.779,5251.1372,1202.7351,5316.6121Z"/><path fill="#010101" d="M1188.1742,2912.1425s-339.4911-93.5717-471.7637-178.7092c0,0-474.3364-48.4617-106.0871,1239.6044,0,0-652.5644,180.7824-963.3621,711.4326,0,0,46.78,376.59,457.5242,512.9812,204.4515,67.89,826.1028-968.2924,911.7445-1122.6191,54.373-97.98,100.6614-501.4533,132.5159-807.6224"/><g clip-path="url(#q)"><path fill="#010101" d="M566.8784,3949.7784c-309.9466-1033.8122,517.2422-803.671,633.4425-1062.3831,48.603-167.0286-646.7749-196.584-823.0091-204.0353-59.0358-45.0464-201.36,355.4069-294.5576,474.8776"/><path fill="none" stroke="#fff" stroke-linecap="round" stroke-linejoin="round" stroke-width="6" d="M-398.0035,5162.666S709.3552,4029.93,771.1866,4023.06,681.8845,2886.544,819.2777,2733.4333"/></g><path fill="none" stroke="#010101" stroke-linecap="round" stroke-linejoin="round" stroke-width="6" d="M1188.1742,2912.1425s-339.4911-93.5717-471.7637-178.7092c0,0-474.3364-48.4617-106.0871,1239.6044,0,0-652.5644,180.7824-963.3621,711.4326,0,0,46.78,376.59,457.5242,512.9812,204.4515,67.89,826.1028-968.2924,911.7445-1122.6191,54.373-97.98,100.6614-501.4533,132.5159-807.6224"/><path fill="#010101" d="M441.3086,2752.081s592.2168,285.8314,885.0469,142.0119c0,0-169.39-377.3148-3.8869-519.0636,169.1982-144.9139-15.6332-420.7918-52.9174-455.788,0,0-81.377,38.1914-187.601-107.24C985.8473,1680.4266,434.0776,2578.7267,441.3086,2752.081Z"/><g clip-path="url(#r)"><path fill="#010101" d="M1054.791,2213.6771s-78.0878,203.4006,162.1823,190.0522c-106.1234-12.008-349.3822,73.3035-305.354,584.7362,47.4013-138.7326-220.9073-56.5125-289.93-77.27,51.9434-11.0518,96.6638-180.4993,125.2683-286.996C856.7912,2373.6912,902.8443,2348.7833,1054.791,2213.6771Z"/><polygon fill="#fff" points="1164.864 2050.674 1164.864 2336.812 1624.867 2173.518 1164.864 2050.674"/><polygon fill="none" stroke="#010101" stroke-linecap="round" stroke-linejoin="round" stroke-width="6" points="1164.864 2050.674 1164.864 2336.812 1624.867 2173.518 1164.864 2050.674"/></g><path fill="none" stroke="#010101" stroke-linecap="round" stroke-linejoin="round" stroke-width="6" d="M441.3086,2752.081s592.2168,285.8314,885.0469,142.0119c0,0-169.39-377.3148-3.8869-519.0636,169.1982-144.9139-15.6332-420.7918-52.9174-455.788,0,0-81.377,38.1914-187.601-107.24C985.8473,1680.4266,434.0776,2578.7267,441.3086,2752.081Z"/><path fill="#fff" d="M812.6909,3312.9013c-5.1351,60.4107-185.95,339.6732-211.9289,228.8939s113.6244-238.3014,113.6244-238.3014S599.43,2482.2163,659.5182,2380.7815s194.1437-657.6215,422.432-568.78-191.6809,688.1739-191.6809,688.1739Z"/><g clip-path="url(#s)"><path fill="#fff" d="M577.4056,2411.7762c214.55-226.6514,440.6095-94.6388,473.0345-158.3147-63.3276-52.9436-444.1523-179.95-452.9012-77.5608"/></g><path fill="none" stroke="#010101" stroke-linecap="round" stroke-linejoin="round" stroke-width="6" d="M812.6909,3312.9013c-5.1351,60.4107-185.95,339.6732-211.9289,228.8939s113.6244-238.3014,113.6244-238.3014S599.43,2482.2163,659.5182,2380.7815s194.1437-657.6215,422.432-568.78-191.6809,688.1739-191.6809,688.1739Z"/><path fill="#010101" d="M693.4326,2153.4322c-1.5624,7.8577,402.0347,165.091,410.6206,93.9814C1434.91,1434.3139,693.4281,1799.3211,693.4326,2153.4322Z"/><g clip-path="url(#t)"><path fill="#fff" stroke="#010101" stroke-linecap="round" stroke-linejoin="round" stroke-width="6" d="M664.6991,2014.4068c64.9032,97.8736,391.9926,220.6577,479.079,199.1247,36.6869,139.3546-419.2245,68.6034-472.2088,91.9892"/></g><path fill="none" stroke="#010101" stroke-linecap="round" stroke-linejoin="round" stroke-width="6" d="M693.4326,2153.4322c-1.5624,7.8577,402.0347,165.091,410.6206,93.9814C1434.91,1434.3139,693.4281,1799.3211,693.4326,2153.4322Z"/><path fill="none" stroke="#fff" stroke-linecap="round" stroke-linejoin="round" stroke-width="6" d="M1114.8017,2390.131c23.812,20.9947,60.107,26.5568,89.1133,13.6562"/><path fill="none" stroke="#fff" stroke-linecap="round" stroke-linejoin="round" stroke-width="6" d="M1087.2138,2791.0119l87.022-4.58"/><path fill="none" stroke="#010101" stroke-linecap="round" stroke-linejoin="round" stroke-width="6" d="M881.2525,2502.269l-31.81-23.244"/><path fill="none" stroke="#010101" stroke-linecap="round" stroke-linejoin="round" stroke-width="6" d="M1590.8381,2392.5873a29.4237,29.4237,0,0,1-4.1927,22.9912"/><path fill="#010101" d="M1160.7244,1720.8586l-9.7564,124.9874a90.7322,90.7322,0,0,1-43.4661,22.1007l-218.6,43.9332-1.4832-35.2639-40.71,43.7437-62.2022,12.501c-139.7126-149.8919,62.6294-277.2465,154.7613-333.1222s43.6249-157.4306,113.3742-168.6039,60.1933,76.4365,60.1933,76.4365l47.89,213.2875"/><g clip-path="url(#u)"><path fill="#010101" d="M794.1333,1663.5684c219.0678-62.8813,196.1865-71.2186,205.3979-146.3024s-97.001,2.3017-97.001,2.3017l-130.5948,95.1356"/></g><path fill="none" stroke="#010101" stroke-linecap="round" stroke-linejoin="round" stroke-width="6" d="M1160.7244,1720.8586l-9.7564,124.9874a90.7322,90.7322,0,0,1-43.4661,22.1007l-218.6,43.9332-1.4832-35.2639-40.71,43.7437-62.2022,12.501c-139.7126-149.8919,62.6294-277.2465,154.7613-333.1222s43.6249-157.4306,113.3742-168.6039,60.1933,76.4365,60.1933,76.4365l47.89,213.2875"/><path fill="#010101" d="M1241.4375,1620.772c115.79-105.462,180.5736-216.8621-8.8061-198.7266-104.4471-54.9732-179.99,9.0892-179.99,9.0892s-73.6289,185.12-68.8459,184.1322c41.3492-8.5385,73.6281,82.404,107.8327,90.4071"/><g clip-path="url(#v)"><path fill="#010101" d="M1258.7523,1443.6929c59.3691,22.8617,34.47,97.2564,80.4156,96.602s-39.0814,29.51-39.0814,29.51L1223.86,1549.01l12.4143-64.7112"/><path fill="#010101" d="M1088.573,1411.0358c41.2089-10.2727-23.7269,43.01,18.0212,40.4847s71.2576-84.4205,71.2576-84.4205l-32.8988-3.1294"/></g><path fill="none" stroke="#010101" stroke-linecap="round" stroke-linejoin="round" stroke-width="6" d="M1241.4375,1620.772c115.79-105.462,180.5736-216.8621-8.8061-198.7266-104.4471-54.9732-179.99,9.0892-179.99,9.0892s-73.6289,185.12-68.8459,184.1322c41.3492-8.5385,73.6281,82.404,107.8327,90.4071"/><path fill="#fff" d="M1207.495,1427.0972c105.1222,8.7607,82.4566,102.1628,111.7,136.1358s50.444,184.3228-49.6439,182.0222-172.4371-61.8542-172.4371-61.8542l16.8355-164.0868Z"/><g clip-path="url(#w)"><path fill="#fff" d="M1161.4339,1647.3581c41.0343-20.0543,19.773-68.9168,19.773-68.9168s102.8092-104.3517,87.1377-147.337c-10.2115-28.009-102.31,53.2515-102.31,53.2515l-63.1188,99.5463"/></g><path fill="none" stroke="#010101" stroke-linecap="round" stroke-linejoin="round" stroke-width="6" d="M1207.495,1427.0972c105.1222,8.7607,82.4566,102.1628,111.7,136.1358s50.444,184.3228-49.6439,182.0222-172.4371-61.8542-172.4371-61.8542l16.8355-164.0868Z"/><path fill="#010101" d="M1101.2037,1703.75c131.6553-38.9126,66.21-122.8946,66.21-122.8946s120.7753-128.5668,76.4231-188.1457-197.6863,74.2862-194.5181,133.4248S1030.4561,1689.3176,1101.2037,1703.75Z"/><g clip-path="url(#x)"><path fill="#010101" d="M1095.5988,1638.8939c-15.567-9.2973,59.2033-33.795,104.3131-21.423s-19.9087,49.93-19.9087,49.93l-65.113-.6781"/></g><path fill="none" stroke="#010101" stroke-linecap="round" stroke-linejoin="round" stroke-width="6" d="M1101.2037,1703.75c131.6553-38.9126,66.21-122.8946,66.21-122.8946s120.7753-128.5668,76.4231-188.1457-197.6863,74.2862-194.5181,133.4248S1030.4561,1689.3176,1101.2037,1703.75Z"/><path fill="#010101" d="M1300.961,1554.6635c9.4742,22.0932-13.0326,34.8424-25.3156,11.4834C1266.1719,1544.0556,1288.6788,1531.3063,1300.961,1554.6635Z"/><path fill="#fff" d="M1300.69,1552.72c30.6587,14.6907,52.1174,6.8567,56.5744,16.2634s-8.9267,35.6561-31.9916,44.4825"/><path fill="none" stroke="#010101" stroke-linecap="round" stroke-linejoin="round" stroke-width="6" d="M1300.69,1552.72c30.6587,14.6907,52.1174,6.8567,56.5744,16.2634s-8.9267,35.6561-31.9916,44.4825"/><path fill="#010101" d="M1257.9233,1503.6534c-34.7274,14.4431-35.69,32.1121-13.3923,24.5008S1280.6122,1494.2172,1257.9233,1503.6534Z"/><ellipse cx="1227.732" cy="1615.293" fill="#fff" opacity=".3" rx="28.325" ry="20.907" transform="rotate(-15.447 1227.728 1615.289)"/><path fill="none" stroke="#010101" stroke-linecap="round" stroke-linejoin="round" stroke-width="6" d="M1270.8088,1635.3868c24.406,15.6688,46.1682,2.708,46.1682,2.708"/><path fill="#fff" stroke="#010101" stroke-linecap="round" stroke-linejoin="round" stroke-width="6" d="M1194.8775,1635.3868c-170.414-43.1-105.7146,104.42-14.2419,53.6581"/><path fill="none" stroke="#010101" stroke-linecap="round" stroke-linejoin="round" stroke-width="6" d="M1150.9379,1654.0775c-29.6363-6.0528-39.6954,8.1817,1.635,27.4794"/><path fill="#010101" d="M1142.8631,1814.3159a65.7744,65.7744,0,1,1,64.6243-78.75h0a65.8826,65.8826,0,0,1-64.6243,78.75Zm.1673-122.0464a56.2543,56.2543,0,1,0,55.1267,45.1738A56.2234,56.2234,0,0,0,1143.03,1692.27Z"/><path fill="#010101" d="M2044.2577,1661.1656h0a26.0864,26.0864,0,0,1,26.0864,26.0864v443.0171a26.0863,26.0863,0,0,1-26.0863,26.0863h0a26.0864,26.0864,0,0,1-26.0864-26.0864V1687.2519a26.0864,26.0864,0,0,1,26.0864-26.0864Z" transform="rotate(18.47 2044.26 1908.764)"/></g><circle cx="1628.484" cy="1269.59" r="68.715" fill="#fff" stroke="#010101" stroke-linecap="round" stroke-linejoin="round" stroke-width="6"/><circle cx="2477.824" cy="2756.741" r="111.064" fill="#fff" stroke="#010101" stroke-linecap="round" stroke-linejoin="round" stroke-width="6"/></svg>